# xmcd
#
# Track frame offsets: 
#        150
#        11558
#        21010
#        33518
#        45945
#        59435
#        70885
#        84233
#        96990
#        108700
#        122113
#        133658
#        146040
#        159758
#        171385
#        185838
#
# Disc length: 2623 seconds
#
# Revision: 1
# Processed by: cddbd v1.5.2PL0 Copyright (c) Steve Scherf et al.
# Submitted via: ExactAudioCopy v0.90b4
#
DISCID=dc0a3d10
DTITLE=Marvin Gaye - The Marvin Gaye Collection [CD1]
DYEAR=2003
DGENRE=Soul
TTITLE0=Hitch Hike
TTITLE1=Pride And Joy
TTITLE2=Can I Get A Witness
TTITLE3=You're A Wonderful One
TTITLE4=Try It Baby
TTITLE5=Baby Don't You Do It
TTITLE6=How Sweet It Is (to be loved by you)
TTITLE7=I'll Be Doggone
TTITLE8=Pretty Little Baby
TTITLE9=Ain't That Peculiar
TTITLE10=One More Heartache
TTITLE11=Little Darlin' (I Need You)
TTITLE12=Your Unchanging Love
TTITLE13=Chained
TTITLE14=I Heard It Throught The Grapevine
TTITLE15=You
EXTD=
EXTT0=
EXTT1=
EXTT2=
EXTT3=
EXTT4=
EXTT5=
EXTT6=
EXTT7=
EXTT8=
EXTT9=
EXTT10=
EXTT11=
EXTT12=
EXTT13=
EXTT14=
EXTT15=
PLAYORDER=
